# xmcd CD database file
#
# Track frame offsets:
#	183
#	13345
#	26373
#	43930
#	59110
#	75458
#	89003
#	102950
#	122903
#	136208
#	156353
#	172418
#	192030
#	205200
#
# Disc length: 2940 seconds
#
# Revision: 0
# Processed by: cddbd v1.4PL0 Copyright (c) Steve Scherf et al.
# Submitted via: Feurio! 1.65 - http://www.feurio.com
#
DISCID=cb0b7a0e
DTITLE=Otis Spann - Cracked Spanner Head
DYEAR=1964
DGENRE=Blues
TTITLE0=Crack Your Head
TTITLE1=Iced Nehi
TTITLE2=Wagon Steel
TTITLE3=No Sense In Worrying
TTITLE4=Dollar Twenty-Five
TTITLE5=Everything's Gonna Be Alright
TTITLE6=Lucky So And So
TTITLE7=Sometimes I Wonder
TTITLE8=Mr. Highway Man
TTITLE9=What Will Become Of Me
TTITLE10=Country Boy
TTITLE11=My Home In The Desert
TTITLE12=Pretty Girls Everywhere
TTITLE13=You Gonna Need My Help
EXTD=ARD Deram 810177-2 
EXTT0=
EXTT1=
EXTT2=
EXTT3=
EXTT4=
EXTT5=
EXTT6=
EXTT7=
EXTT8=
EXTT9=
EXTT10=
EXTT11=
EXTT12=
EXTT13=
PLAYORDER=
